<?xml version="1.0" encoding="UTF-8"?>
<!-- Created with Inkscape (http://www.inkscape.org/) -->
<svg width="350" height="350" version="1.1" viewBox="0 0 92.604 92.604" xml:space="preserve" xmlns="http://www.w3.org/2000/svg" xmlns:cc="http://creativecommons.org/ns#" xmlns:dc="http://purl.org/dc/elements/1.1/" xmlns:rdf="http://www.w3.org/1999/02/22-rdf-syntax-ns#" xmlns:xlink="http://www.w3.org/1999/xlink"><style>
.measure-arrow
{
}
.measure-label
{

}
.measure-line
{
}</style><title>Logo of Vietnam Maritime University</title><g><g transform="matrix(.18307 0 0 .18307 .53399 .53957)"><g><path d="m114.02 63.55h271.97s-51.022-51.844-135.98-51.844-135.98 51.844-135.98 51.844z" fill="#fe0103"/><path transform="matrix(.99475 0 0 .99475 2.6886 .2216)" d="m248.62 20.453 5.061 13.521 14.423 0.63506-11.295 8.9916 3.8531 13.914-12.042-7.964-12.042 7.964 3.8531-13.914-11.295-8.9916 14.423-0.63505z" fill="#fff"/></g><g fill="none" stroke="#fe0103" stroke-linejoin="round"><path d="m250 147.53v108.1" stroke-width="3.0467"/><g stroke-width="3"><path class="UnoptimicedTransforms" d="m235.97 148.49c-33.388 24.96-50.924 60.111-49.149 105.25m77.214-105.25c33.388 24.96 50.924 60.111 49.149 105.25"/><path d="m192.64 170.52s23.364 7.78 57.392 7.78 57.34-7.6174 57.34-7.6174"/><path d="m159.84 210.56s38.647 17.414 90.16 17.414 90.173-17.274 90.173-17.274"/></g></g><path class="UnoptimicedTransforms" d="m250 274.82-7.0929-9.7181h-88.755l38.823 69.456h50.376l6.6488 9.7718 6.6488-9.7718h50.376l38.823-69.456h-88.755z" fill="none" stroke="#fe0103" stroke-width="3"/><g fill="#fe0103" stroke-width=".562" aria-label="VMU"><path d="m199.49 322.52-12.65-36.587h10.567l8.6568 26.64 8.7809-26.64h10.096l-13.146 36.587z"/><path d="m228.71 322.52v-36.587h15.801l6.1516 23.589 5.6307-23.589h15.801v36.587h-9.401v-29.27l-8.0615 29.27h-9.2025l-8.1359-29.319v29.319z"/><path d="m278.6 285.93h10.269v21.803q0 4.0184 1.7859 6.0523 1.7859 2.034 5.3082 2.034 3.5223 0 5.4322-2.1084 1.9348-2.1084 1.9348-5.9779v-21.803h9.8226v22.721q0 7.0445-4.5889 10.765-4.5641 3.7207-13.246 3.7207-8.3096 0-12.526-3.7703-4.192-3.7703-4.192-11.187z"/></g><path d="m250 85.904c-12.383 0.3286-16.021 16.3-8.176 24.638h-19.945v3.272h19.772l-2.71 10.014c-36.682 3.141-69.612 22.367-90.757 52.506l-9.968-5.55-5.288 7.088c-5.188-3.842-9.859-10.004-15.139-14.482-6.39-5.421-16.106-7.498-19.233-2.553-2.7031 5.188 3.9747 12.544 11.874 15.344 6.525 2.313 14.2 3.255 20.128 5.809l-3.469 8.134 9.851 5.854c-7.46 16.242-11.334 33.9-11.357 51.774 9e-3 18.45 3.561 35.695 11.478 52.36l-9.972 5.926 3.469 8.134c-5.928 2.553-13.603 3.495-20.128 5.808-7.899 2.801-14.577 10.156-11.874 15.345 3.1267 4.945 12.843 2.867 19.233-2.554 5.28-4.478 9.951-10.639 15.139-14.481l5.288 7.088 10.135-5.644c21.046 30.606 52.906 48.671 89.907 51.91 0 0 1.523 18.455 0.878 19.528-9.431 13.588-41.073 4.13-52.72-8.664-1.628-4.326 15.447-5.019 15.447-5.019l-45.671-14.411 16.685 36.574 2.598-12.561c6.993 7.117 18.341 17.844 32.709 22.894 19.249 6.767 36.857 12.177 41.816 18.516 4.959-6.339 22.567-11.749 41.816-18.516 14.368-5.05 25.716-15.777 32.709-22.894l2.598 12.561 16.685-36.574-45.671 14.411s17.075 0.693 15.447 5.019c-11.647 12.794-43.289 22.252-52.72 8.664-0.645-1.073 0.878-19.528 0.878-19.528 37.172-3.249 68.94-21.085 89.967-51.91l10.135 5.644 5.288-7.088c5.187 3.842 9.859 10.003 15.139 14.481 6.39 5.421 16.105 7.499 19.233 2.554 2.703-5.189-3.975-12.544-11.874-15.345-6.525-2.313-14.2-3.255-20.129-5.808l3.47-8.134-9.972-5.926c8.044-16.781 11.415-33.75 11.418-52.36-0.023-17.863-3.893-35.512-11.346-51.746l9.9-5.882-3.47-8.134c5.929-2.554 13.604-3.496 20.129-5.809 7.899-2.8 14.577-10.156 11.874-15.344-3.128-4.945-12.843-2.868-19.233 2.553-5.28 4.478-9.951 10.64-15.139 14.482l-5.288-7.088-10.011 5.574c-21.144-30.152-54.082-49.388-90.774-52.53l-2.71-10.014h19.771v-3.272h-19.944c7.845-8.338 4.207-24.31-8.176-24.638zm0 6.4048c2.641 2e-4 4.781 3.4461 4.781 7.6964 0 4.251-2.14 7.696-4.781 7.696-2.64 1e-3 -4.781-3.445-4.781-7.696 0-4.2506 2.14-7.6966 4.781-7.6964zm0 46.404c60.221 0 109.04 48.818 109.04 109.04 0 60.22-48.818 109.04-109.04 109.04-60.22 0-109.04-48.819-109.04-109.04 0-60.221 48.819-109.04 109.04-109.04z" fill="#fe0103"/><g fill="#0001fe"><path d="m201.08 437.76c-13.069-0.0206-25.618 3.1549-37.914 7.9199-22.303 8.6971-34.049 8.4712-52.396 4.006 12.577 10.026 21.982 15.693 31.508 18.546 11.944 3.5778 31.37-1.3559 39.206-3.5378 21.029-6.8718 39.552-7.1956 56.042-2.2541-0.18844 0.13949 0 0 0 0-13.715 9.8158-23.242 25.512-50.03 20.289 8.5079 6.6376 20.316 9.0324 41.009-3.0474l21.494-12.34 21.494 12.34c20.693 12.08 32.501 9.685 41.009 3.0474-26.788 5.2238-36.315-10.473-50.03-20.289 0 0 0.18844 0.13949 0 0 16.49-4.9414 35.013-4.6176 56.042 2.2541 7.8364 2.1819 27.262 7.1155 39.206 3.5378 9.5261-2.8534 18.931-8.5206 31.508-18.546-18.347 4.4652-30.093 4.6911-52.396-4.006-21.861-8.4711-44.519-11.919-69.477-1.3162-5.8323 2.937-11.625 6.1153-17.357 9.6542-5.7321-3.539-11.524-6.7171-17.357-9.6542-10.919-4.6386-21.398-6.5877-31.563-6.6037z"/><path class="UnoptimicedTransforms" d="m113.92 84.807c-3.7836 7.5376-11.512 17.625-17.66 25.058-6.1634 7.4518-12.409 11.957-22.211 5.6054 3.2573-2.2902 6.1124-4.8365 8.7464-7.4523 3.7549-3.7291 7.0602-7.5995 10.44-11.071 7.4434-7.6446 14.845-13.071 20.684-12.14zm272.16 0c3.7836 7.5376 11.512 17.625 17.66 25.058 6.1634 7.4518 12.409 11.957 22.211 5.6054-3.2573-2.2902-6.1124-4.8365-8.7464-7.4523-3.7549-3.7291-7.0602-7.5995-10.44-11.071-7.4434-7.6446-14.845-13.071-20.684-12.14z"/><path class="UnoptimicedTransforms" d="m87.16 130.71c-4.8492 3.3324-8.3652 7.4498-14.864 9.8395-5.6118 1.178-7.1595 4.0801-10.142 6.3736-0.5147-15.095 4.9096-28.068 9.3693-41.387-6.7302 5.6064-14.135 14.101-19.511 26.499-2.6742 10.316-3.4742 22.642-3.7218 33.938 33.839-11.011 33.817-23.151 38.87-35.264zm325.68 0c4.8492 3.3324 8.3652 7.4498 14.864 9.8395 5.6118 1.178 7.1595 4.0801 10.142 6.3736 0.5147-15.095-4.9096-28.068-9.3693-41.387 6.7302 5.6064 14.135 14.101 19.511 26.499 2.6742 10.316 3.4742 22.642 3.7218 33.938-33.839-11.011-33.817-23.151-38.87-35.264z"/><path class="UnoptimicedTransforms" d="m34.195 219.03-8.8393-33.775c-1.6651-13.228 3.0029-24.08 5.9612-35.574l9.1288 44.69 21.57-16.501c-0.99068 11.088-4.5231 20.86-6.4666 22.924zm431.67 0 8.8393-33.775c1.6651-13.228-3.0029-24.08-5.9612-35.574l-9.1288 44.69-21.57-16.501c0.99068 11.088 4.5231 20.86 6.4666 22.924z"/><path class="UnoptimicedTransforms" d="m34.352 275.54c-6.9381-10.848-13.565-21.912-19.368-33.546-3.8136-10.448-0.01487-23.778 1.6119-36.194l16.958 44.936 14.631-25.428c2.3845 12.469 1.4482 21.153-1.4887 27.078-3.5855 7.8108-8.0246 15.471-12.344 23.153zm431.3 0c6.9381-10.848 13.565-21.912 19.368-33.546 3.8136-10.448 0.0149-23.778-1.6119-36.194l-16.958 44.936-14.631-25.428c-2.3845 12.469-1.4482 21.153 1.4886 27.078 3.5855 7.8108 8.0246 15.471 12.344 23.153z"/><path class="UnoptimicedTransforms" d="m49.706 326.82-28.982-30.158c-6.3757-6.3722-8.7408-19.183-10.461-33.028l32.949 36.253 8.5003-31.861c5.9731 13.39 8.1562 21.87 5.5047 31.29zm400.58 0 28.982-30.158c6.3757-6.3722 8.7408-19.183 10.461-33.028l-32.949 36.253-8.5003-31.861c-5.9731 13.39-8.1562 21.87-5.5047 31.29z"/><path class="UnoptimicedTransforms" transform="translate(-2.2002 1.6763)" d="m75.73 384.04-33.689-25.004c-6.4028-5.0153-13.205-15.686-20.659-35.594l39.015 28.949 2.1054-39.15c4.4304 11.041 11.698 23.802 11.974 29.733zm348.54 0 33.689-25.004c6.4028-5.0153 13.205-15.686 20.659-35.594l-39.015 28.949-2.1054-39.15c-4.4304 11.041-11.698 23.802-11.974 29.733z"/><path class="UnoptimicedTransforms" d="m126.16 438.24-42.847-17.398c-18.007-7.2024-25.951-27.459-35.683-39.639l53.594 24.89-9.5836-52.245c10.328 12.839 22.063 26.87 22.982 31.728zm247.67 0 42.847-17.398c18.007-7.2024 25.951-27.459 35.683-39.639l-53.594 24.89 9.5836-52.245c-10.328 12.839-22.063 26.87-22.982 31.728z"/></g></g></g><metadata><rdf:RDF><cc:Work rdf:about=""><dc:title>Logo of Vietnam Maritime University</dc:title></cc:Work></rdf:RDF></metadata></svg>
